<svg width="68" height="68" viewBox="0 0 68 68" fill="none" xmlns="http://www.w3.org/2000/svg">
    <circle cx="34" cy="34" r="32" fill="#F1F5FE" stroke="white" stroke-width="4" />
    <mask id="mask0_4170_16656" style="mask-type:alpha" maskUnits="userSpaceOnUse" x="2" y="0" width="64" height="64">
        <circle cx="34" cy="32" r="30" fill="#F1F5FE" stroke="white" stroke-width="4" />
    </mask>
    <g mask="url(#mask0_4170_16656)">
        <path fill-rule="evenodd" clip-rule="evenodd"
            d="M45 22.5C45 28.299 40.299 33 34.5 33C28.701 33 24 28.299 24 22.5C24 16.701 28.701 12 34.5 12C40.299 12 45 16.701 45 22.5Z"
            fill="url(#paint0_linear_4170_16656)" fill-opacity="0.8" />
        <path fill-rule="evenodd" clip-rule="evenodd"
            d="M14.0002 64C12.9121 64 12.041 63.0862 12.1543 62.004C13.6336 47.8847 23.0768 37 34.4978 37C45.9271 37 55.3635 47.8847 56.8415 62.0041C56.9548 63.0862 56.0837 64 54.9956 64H14.0002Z"
            fill="url(#paint1_linear_4170_16656)" fill-opacity="0.8" />
    </g>
    <defs>
        <linearGradient id="paint0_linear_4170_16656" x1="26.4074" y1="35.5316" x2="40.0479" y2="24.3814"
            gradientUnits="userSpaceOnUse">
            <stop stop-color="#E8EBFF" />
            <stop offset="1" stop-color="#8FC9FF" />
        </linearGradient>
        <linearGradient id="paint1_linear_4170_16656" x1="17.1587" y1="67.2549" x2="34.2313" y2="43.9955"
            gradientUnits="userSpaceOnUse">
            <stop stop-color="#E8EBFF" />
            <stop offset="1" stop-color="#8FC9FF" />
        </linearGradient>
    </defs>
</svg>