<svg xmlns="http://www.w3.org/2000/svg" width="68" height="68" fill="none" data-c="1"><circle cx="34" cy="34" r="32" fill="#F1F5FE" stroke="#fff" stroke-width="4"/><mask id="a" width="64" height="64" x="2" y="0" maskUnits="userSpaceOnUse" style="mask-type:alpha"><circle cx="34" cy="32" r="30" fill="#F1F5FE" stroke="#fff" stroke-width="4"/></mask><g fill-opacity=".8" fill-rule="evenodd" clip-rule="evenodd" mask="url(#a)"><path fill="url(#b)" d="M45 22.5C45 28.299 40.299 33 34.5 33S24 28.299 24 22.5 28.701 12 34.5 12 45 16.701 45 22.5"/><path fill="url(#c)" d="M14 64c-1.088 0-1.959-.914-1.846-1.996C13.634 47.884 23.077 37 34.498 37c11.43 0 20.866 10.885 22.344 25.004.113 1.082-.758 1.996-1.846 1.996z"/></g><defs><linearGradient id="b" x1="26.407" x2="40.048" y1="35.532" y2="24.381" gradientUnits="userSpaceOnUse"><stop stop-color="#E8EBFF"/><stop offset="1" stop-color="#8FC9FF"/></linearGradient><linearGradient id="c" x1="17.159" x2="34.231" y1="67.255" y2="43.995" gradientUnits="userSpaceOnUse"><stop stop-color="#E8EBFF"/><stop offset="1" stop-color="#8FC9FF"/></linearGradient></defs></svg>