<svg xmlns="http://www.w3.org/2000/svg" width="24" height="24" fill="none" data-c="1"><path fill="#CBCDD1" fill-rule="evenodd" d="M16.992 5.185h3.598c1.526 0 2.729 1.199 2.784 2.725v10.905a2.734 2.734 0 0 1-2.726 2.726H3.471a2.734 2.734 0 0 1-2.726-2.726V7.91a2.734 2.734 0 0 1 2.726-2.725h3.598l1.526-2.29a.87.87 0 0 1 .763-.436h5.345c.326 0 .598.165.763.436zm-8.198 7.688a3.232 3.232 0 1 0 6.464 0 3.232 3.232 0 0 0-6.464 0m3.232 5.408c-2.97 0-5.409-2.438-5.409-5.408s2.442-5.409 5.409-5.409 5.408 2.44 5.408 5.409c0 2.97-2.438 5.408-5.408 5.408" clip-rule="evenodd"/></svg>