<svg xmlns="http://www.w3.org/2000/svg" width="16" height="16" fill="none" data-c="1"><path fill="#FF2F2F" d="M12.9 15H3.1C1.942 15 1 14.181 1 13.173V2.827C1 1.819 1.942 1 3.1 1h9.8c1.158 0 2.1.819 2.1 1.827v10.348C15 14.181 14.058 15 12.9 15M3.1 2.217c-.385 0-.7.274-.7.61v10.348c0 .336.315.61.7.61h9.8c.385 0 .7-.274.7-.61V2.827c0-.336-.315-.61-.7-.61z"/><path fill="#FF2F2F" d="M9.2 11H5.7c-.387 0-.7-.279-.7-.625 0-.345.313-.626.7-.626h3.5c.772 0 1.4-.56 1.4-1.249s-.628-1.25-1.4-1.25H5.7c-.387 0-.7-.278-.7-.625C5 6.28 5.313 6 5.7 6h3.5C10.745 6 12 7.12 12 8.498S10.745 11 9.2 11"/><path fill="#FF2F2F" d="M6.7 8.808a.67.67 0 0 1-.459-.178L4.402 6.91a.58.58 0 0 1 0-.862L6.24 4.327a.68.68 0 0 1 .919 0 .58.58 0 0 1 0 .86L5.782 6.479l1.378 1.29a.58.58 0 0 1 0 .862.66.66 0 0 1-.46.178"/></svg>