<svg xmlns="http://www.w3.org/2000/svg" width="16" height="16" fill="none" data-c="1"><path fill="#3971F3" d="M14 14.666H2a1.337 1.337 0 0 1-1.334-1.334V4c0-1.133.867-2 2-2h6v1.334h-6C2.266 3.334 2 3.6 2 4s.266.667.666.667H14c.733 0 1.333.6 1.333 1.333v7.334c0 .733-.6 1.333-1.334 1.333m-12-8.8v7.467h12V5.999H2.665C2.4 6 2.2 5.933 2 5.866m5.333 6.4L4.4 9.333l.933-.934 2 2 3.333-3.333.934.933zm6-6.266q-.4 0-.6-.4l-1.734-3.4-7.4 3.733c-.266.134-.666 0-.866-.333-.133-.267 0-.667.334-.867l8-4c.333-.133.733 0 .866.267l2 4c.133.333 0 .733-.267.866-.133.134-.2.134-.333.134"/></svg>