<svg xmlns="http://www.w3.org/2000/svg" width="15" height="16" fill="none" viewBox="0 0 15 16" data-c="1"><path fill="#333" d="M12.217 3.18h-.348v-.174C11.869 1.348 10.619 0 9.086 0H2.783C1.249 0 0 1.348 0 3.006v6.808c0 1.657 1.249 3.005 2.783 3.005h.348v.175c0 1.658 1.25 3.006 2.783 3.006h6.303C13.751 16 15 14.652 15 12.994V6.186c0-1.657-1.249-3.005-2.783-3.005M3.131 6.187v5.208h-.348c-.807 0-1.464-.709-1.464-1.58V3.006c0-.872.657-1.583 1.464-1.583h6.303c.808 0 1.463.71 1.463 1.583v.175H5.914c-1.534 0-2.783 1.348-2.783 3.005m10.55 6.808c0 .872-.657 1.58-1.464 1.58H5.914c-.808 0-1.463-.708-1.463-1.58V6.186c0-.871.657-1.582 1.463-1.582h6.303c.808 0 1.464.71 1.464 1.582zm-1.978-4.116H9.725V6.742c0-.391-.297-.713-.66-.713-.361 0-.658.32-.658.713v2.136H6.429c-.362 0-.659.321-.659.712s.297.713.659.713h1.978v2.136c0 .391.297.713.659.713s.659-.32.659-.713V10.3h1.978c.362 0 .658-.32.658-.712.002-.392-.295-.711-.658-.711"/></svg>