<svg width="20" height="20" viewBox="0 0 20 20" fill="none" xmlns="http://www.w3.org/2000/svg">
<path d="M2 6H4C4.66667 6 5 6.33333 5 7V16C5 16.6667 4.66667 17 4 17H2C1.33333 17 1 16.6667 1 16V7C1 6.33333 1.33333 6 2 6Z" fill="#1A6DD8"/>
<path d="M9 1H11C11.6667 1 12 1.33333 12 2V16C12 16.6667 11.6667 17 11 17H9C8.33333 17 8 16.6667 8 16V2C8 1.33333 8.33333 1 9 1Z" fill="#1A6DD8"/>
<path d="M16 4H18C18.6667 4 19 4.33333 19 5V16C19 16.6667 18.6667 17 18 17H16C15.3333 17 15 16.6667 15 16V5C15 4.33333 15.3333 4 16 4Z" fill="#1A6DD8"/>
</svg>
