<svg xmlns="http://www.w3.org/2000/svg" width="16" height="16" fill="none" viewBox="0 0 16 16" data-c="1"><g clip-path="url(#a)"><path fill="#1A6DD8" d="M1.266 13.762a1.306 1.306 0 0 1-1.302-1.208l-.003-.097V2.013A1.306 1.306 0 0 1 1.169.71l.097-.004h13.428c.689 0 1.252.533 1.302 1.209l.004.097v10.444a1.306 1.306 0 0 1-1.209 1.302l-.097.003zM4.81 9.66H1.08v2.852c0 .063.061.115.143.129l.043.003H4.81zm5.222 0H5.93v2.984h4.103zm4.849 0h-3.73v2.984h3.543c.088 0 .163-.043.182-.102l.005-.03zm-4.849-4.2H5.93v3.08h4.103zm-5.222 0H1.08v3.08h3.73zm10.071 0h-3.73v3.08h3.73z"/></g><defs><clipPath id="a"><path fill="#fff" d="M0 0h16v16H0z"/></clipPath></defs></svg>