<svg xmlns="http://www.w3.org/2000/svg" width="16.304" height="15.802" fill="none" viewBox="3.907 4.339 16.304 15.802" data-c="1"><path stroke="#FF2F2F" stroke-linecap="round" stroke-linejoin="round" stroke-width="1.5" d="M6 8h12M9.333 8V6.667a1.333 1.333 0 0 1 1.333-1.333h2.667a1.333 1.333 0 0 1 1.333 1.333V8m2 0v9.334a1.333 1.333 0 0 1-1.333 1.333H8.666a1.333 1.333 0 0 1-1.333-1.334V8z"/><path fill="#FF2F2F" d="M14.364 11v5.455c0 .5-.41.909-.91.909s-.909-.41-.909-.91V11c0-.5.41-.909.91-.909s.909.41.909.91m-3.637 3.636v1.818c0 .5-.409.909-.909.909s-.909-.41-.909-.91v-1.818c0-.5.41-.909.91-.909s.908.41.908.91"/></svg>