<svg xmlns="http://www.w3.org/2000/svg" width="15" height="14" fill="none" viewBox="0 0 15 14" data-c="1"><path fill="#1A6DD8" stroke="#1A6DD8" stroke-width=".2" d="M8.802 4.102a4.5 4.5 0 0 1 4.5 4.5c0 .989-.322 1.902-.864 2.645l1.556 1.556a.701.701 0 0 1-.46 1.196.7.7 0 0 1-.496-.175l-.003-.002-.028-.026-.002-.003-1.556-1.555a4.48 4.48 0 0 1-2.647.863H8.8a4.5 4.5 0 1 1 0-9Zm0 1.399a3.101 3.101 0 1 0-.001 6.198 3.101 3.101 0 0 0 0-6.198Z"/><path fill="#1A6DD8" stroke="#1A6DD8" stroke-width=".2" d="m14.303 3.666-.014.135a.7.7 0 0 1-1.386-.093V1.4a.1.1 0 0 0-.09-.1H1.6a.1.1 0 0 0-.1.086l-.001.02V12.6a.1.1 0 0 0 .089.1h-.001 1.892a.7.7 0 0 1 .04 1.399H1.6a1.5 1.5 0 0 1-1.5-1.448V1.401A1.5 1.5 0 0 1 1.548-.1h11.254a1.5 1.5 0 0 1 1.488 1.303l.012.145v2.317Z"/></svg>