<svg xmlns="http://www.w3.org/2000/svg" width="16" height="16" fill="none" data-c="1"><path fill="#3971F3" d="M13.349 9.819v1.202c0 .748-.61 1.352-1.366 1.352H3.731a1.357 1.357 0 0 1-1.366-1.352V9.82a.68.68 0 0 0-.682-.676A.68.68 0 0 0 1 9.82V11c0 1.5 1.227 2.714 2.74 2.714h8.233c1.514 0 2.741-1.215 2.741-2.713V9.819a.68.68 0 0 0-.682-.676.68.68 0 0 0-.683.676"/><path fill="#3971F3" d="M11.083 6.102a.69.69 0 0 0-.974 0L8.818 7.395V2.391a.676.676 0 1 0-1.351 0v5.004L6.175 6.102a.689.689 0 0 0-.974.975l2.417 2.42c.29.29.76.29 1.05 0l2.415-2.42a.69.69 0 0 0 0-.975"/></svg>