<svg xmlns="http://www.w3.org/2000/svg" width="120" height="120" fill="none" viewBox="0 0 120 120" data-c="1"><circle cx="60" cy="60" r="58" fill="#EFF2FF" stroke="#fff" stroke-width="4"/><mask id="a" width="114" height="114" x="3" y="3" maskUnits="userSpaceOnUse" style="mask-type:alpha"><circle cx="60" cy="60" r="56.479" fill="#fff"/></mask><g mask="url(#a)"><path fill="#fff" d="M149.159 128.94h4.406V90.513h3.502v-4.406h-10.478l-17.015-37.135-6.506-2.805 23.337-23.337h10.662v-2.202h-10.449v-27.17h-4.406v3.855H56.025V20.23l-15.164-6.609H8.081V-6.542H5.878v20.076h-8.672v35.982h-31.722v-56.11h-4.407V49.56H-76.43v4.406h73.637v12.432h-24.02v6.755h2.203V68.6h21.817v11.463l-31.576 29.799h-42.047v4.406h43.78l14.951-14.099 28.77 28.771h6.228l-31.796-31.796L1.612 81.965V37.04l30.203 27.78v64.047h2.202v-62.02l28.059 25.81v36.284h4.406v-15.054h82.677zM60.431 1.667h46.196v18.358h2.203V1.667h33.382v19.13l-23.711 23.74L60.49 21.494zM1.612 31.04V17.955h38.317l40.527 15.89-18.358 44.162v8.658zm64.87 78.44V78.999l17.822-43.744c1.733.661 41.856 16.772 41.856 16.772l11.015 23.998-33.478 33.455zm40.329 0L138.1 78.198l5.662 12.351h5.397v18.931z"/><path fill="#A0AFFF" d="M109.788 43.758c0-.292.116-.572.323-.779.207-.205.487-.32.778-.323.292 0 .572.117.779.323a1.137 1.137 0 0 1 0 1.557 1.104 1.104 0 0 1-1.557 0 1.1 1.1 0 0 1-.323-.778M106 42.102A1.094 1.094 0 0 1 107.101 41h.221q.105.023.205.066a1 1 0 0 1 .191.103q.09.06.169.132a1.15 1.15 0 0 1 0 1.557q-.077.079-.169.14a1 1 0 0 1-.191.102c-.134.06-.279.09-.426.088a1.1 1.1 0 0 1-.778-.33 1.11 1.11 0 0 1-.323-.756"/></g><path fill="#4D64DE" d="m100 61.969-5.228 6.902-5.228 6.901a6.26 6.26 0 0 1-2.281 1.855c-.896.432-1.9.666-2.945.666a6.76 6.76 0 0 1-3.401-.912L40.353 53.656a4.6 4.6 0 0 1-1.618-1.59 4.15 4.15 0 0 1-.586-2.119c0-.918.31-1.819.89-2.569l7.576-9.783a6.24 6.24 0 0 1 2.261-1.806 6.75 6.75 0 0 1 2.9-.648c1.185 0 2.345.306 3.356.888zM82.598 79.254q-1.074 0-2.1-.27a8 8 0 0 1-1.946-.793L39.135 55.805c-.432-.246-.986.042-.986.516v1.356c0 .877.49 2.987 1.289 3.443l11.758 6.74c-1.643.924-2.738 1.31-2.738 3.231 0 1.213.438 2.329 1.179 3.223a4.18 4.18 0 0 1-2.848 1.098h-8.64v-2.808c0-1.74-1.256-3.265-3.067-3.716l-1.056-.258-.013 22.147 1.855-.858c1.398-.648 2.287-1.98 2.287-3.44v-7.225h8.73c1.67 0 3.273-.619 4.459-1.723l.2-.186c.683-.636 1.61-.978 2.577-.978h.013c2.99 0 4.144-.861 4.363-3.592L76.157 82.9a4 4 0 0 0 1.978.522c.63 0 2.537-1.444 3.078-1.708a3.65 3.65 0 0 0 1.36-1.152l.438-.606c.206-.3-.026-.702-.413-.702m-28.47-6.722c-.851 0-1.547-.649-1.547-1.44 0-.793.696-1.441 1.546-1.441s1.547.648 1.547 1.44-.696 1.44-1.547 1.44"/><path fill="url(#b)" d="m96.118 60.11-9.843 12.656a6 6 0 0 1-4.92 2.547 6.03 6.03 0 0 1-3.202-.921L39.968 51.71a4.5 4.5 0 0 1-1.522-1.608 4.446 4.446 0 0 1 .285-4.737l7.132-9.885a6 6 0 0 1 2.13-1.826 6.005 6.005 0 0 1 5.89.243zm-12.5 18.762c-.673 0-2.628-.091-3.271-.273s-3.843-1.743-4.42-2.095L38.823 53.882a.61.61 0 0 0-.928.521v1.371c0 .886.46 1.71 1.213 2.171l11.069 6.811a5.33 5.33 0 0 0-2.578 4.573c0 1.226.412 2.354 1.11 3.257a3.8 3.8 0 0 1-2.681 1.11h-8.133v-2.838c0-1.76-1.183-3.3-2.887-3.755l-.995-.26L34 89.223l1.747-.868A3.89 3.89 0 0 0 37.9 84.88v-7.302h8.218c1.57 0 3.081-.625 4.197-1.74l.188-.189a3.42 3.42 0 0 1 2.426-.989h.012a5.34 5.34 0 0 0 5.325-4.936l19.212 12.819a3.54 3.54 0 0 0 1.862.528c.595 0 1.17-.152 1.68-.419 1.5-1.132 2.246-1.96 2.574-2.458l.412-.613a.462.462 0 0 0-.388-.71m-30.683-8.087a1.46 1.46 0 0 1-1.456-1.456c0-.8.656-1.455 1.456-1.455s1.456.655 1.456 1.455c0 .801-.655 1.456-1.456 1.456"/><defs><linearGradient id="b" x1="65.059" x2="65.059" y1="33" y2="89.223" gradientUnits="userSpaceOnUse"><stop stop-color="#B5C0FF"/><stop offset="1" stop-color="#6176E6"/></linearGradient></defs></svg>