<svg xmlns="http://www.w3.org/2000/svg" width="120" height="120" fill="none" data-c="1"><path fill="#C1CBFF" fill-rule="evenodd" d="M106.592 58c0 25.732-20.86 46.592-46.591 46.592s-46.592-20.86-46.592-46.591 20.86-46.592 46.592-46.592 46.591 20.86 46.591 46.592" clip-rule="evenodd"/><path fill="#EFF2FF" stroke="#E6E6E8" stroke-width="12" d="M107.334 58c0 26.142-21.192 47.334-47.334 47.334-26.141 0-47.333-21.192-47.333-47.334 0-26.141 21.192-47.333 47.333-47.333 26.142 0 47.334 21.192 47.334 47.333Z"/><path fill="#E6E6E8" fill-rule="evenodd" d="M110.203 58c0 27.727-22.476 50.203-50.203 50.203-27.726 0-50.203-22.476-50.203-50.203C9.797 30.274 32.274 7.797 60 7.797S110.203 30.274 110.203 58" clip-rule="evenodd"/><path fill="url(#a)" fill-rule="evenodd" d="M116.741 27.37c0 7.937-6.434 14.37-14.371 14.37-7.936 0-14.37-6.433-14.37-14.37S94.434 13 102.37 13c7.937 0 14.371 6.434 14.371 14.37" clip-rule="evenodd"/><path fill="#E6E6E8" fill-rule="evenodd" stroke="#E6E6E8" stroke-width="2" d="M107.111 27.074h-4.445V22.63a.44.44 0 0 0-.444-.444.443.443 0 0 0-.444.444v4.444h-4.445a.445.445 0 0 0 0 .89h4.445v4.444a.44.44 0 0 0 .444.444.443.443 0 0 0 .444-.444v-4.445h4.445a.443.443 0 0 0 .314-.758.44.44 0 0 0-.314-.13Z" clip-rule="evenodd"/><path fill="url(#b)" fill-rule="evenodd" d="M64.991 40.262h2.563a5.221 5.221 0 0 1 0 10.442H51.986a5.221 5.221 0 1 1 0-10.443h2.563v-2.373a5.221 5.221 0 1 1 10.442 0z" clip-rule="evenodd"/><path fill="url(#c)" fill-rule="evenodd" d="M44.967 45.345H30.372A4.37 4.37 0 0 0 26 49.716v58.58a4.37 4.37 0 0 0 4.372 4.371h59.453a4.37 4.37 0 0 0 4.372-4.371v-58.58a4.37 4.37 0 0 0-4.372-4.371h-15.25q.166.684.168 1.42c0 3.32-2.691 6.011-6.01 6.011H50.808a6.01 6.01 0 0 1-5.842-7.431" clip-rule="evenodd"/><path fill="#E6E6E8" fill-rule="evenodd" d="M38.459 64.033a4.7 4.7 0 0 1 4.7-4.699H76.6a4.7 4.7 0 0 1 0 9.399H43.158a4.7 4.7 0 0 1-4.699-4.7M44 79a2 2 0 0 1 2-2h22a2 2 0 1 1 0 4H46a2 2 0 0 1-2-2M41.934 78.967a1.967 1.967 0 1 1-3.934 0 1.967 1.967 0 0 1 3.934 0M43.901 89.967c0-1.086.881-1.967 1.968-1.967h29.508a1.967 1.967 0 0 1 0 3.934H45.869a1.967 1.967 0 0 1-1.968-1.967M41.934 89.967a1.967 1.967 0 1 1-3.934 0 1.967 1.967 0 0 1 3.934 0M44.213 100.967c0-1.086.88-1.967 1.967-1.967h29.508a1.967 1.967 0 1 1 0 3.934H46.18a1.967 1.967 0 0 1-1.967-1.967M42.246 100.967a1.967 1.967 0 1 1-3.933 0 1.967 1.967 0 0 1 3.933 0" clip-rule="evenodd"/><defs><linearGradient id="a" x1="88" x2="88" y1="13" y2="41.741" gradientUnits="userSpaceOnUse"><stop stop-color="#FF9898"/><stop offset="1" stop-color="#FF4F4F"/></linearGradient><linearGradient id="b" x1="46.765" x2="46.765" y1="32.667" y2="50.704" gradientUnits="userSpaceOnUse"><stop stop-color="#4D64DE"/><stop offset="1" stop-color="#B5C0FF"/></linearGradient><linearGradient id="c" x1="-5.399" x2="36.083" y1="71.249" y2="144.062" gradientUnits="userSpaceOnUse"><stop stop-color="#B5C0FF"/><stop offset="1" stop-color="#5464DA"/></linearGradient></defs></svg>