<svg xmlns="http://www.w3.org/2000/svg" width="120" height="120" fill="none" viewBox="0 0 120 120" data-c="1"><circle cx="57.174" cy="62.674" r="49.51" fill="#C1CBFF"/><circle cx="57.174" cy="62.674" r="54.674" fill="#EFF2FF" stroke="#fff" stroke-width="4"/><mask id="a" width="104" height="104" x="5" y="13" maskUnits="userSpaceOnUse" style="mask-type:luminance"><circle cx="56.587" cy="64.587" r="51.587" fill="#fff"/></mask><g mask="url(#a)"><path fill="url(#b)" d="M56.34 36.752a5.91 5.91 0 0 1 5.91 5.91v2.687h2.901a5.91 5.91 0 0 1 0 11.82H47.528a5.91 5.91 0 0 1 0-11.82h2.902v-2.687a5.91 5.91 0 0 1 5.91-5.91"/><path fill="url(#c)" d="M75.308 51.104c11.045 0 20 8.954 20 20v36.205c0 11.045-8.955 20-20 20H38.113c-11.045 0-20-8.955-20-20V71.104c0-11.046 8.955-20 20-20h1.471a6.805 6.805 0 0 0 6.612 8.412h20.288a6.804 6.804 0 0 0 6.61-8.413z"/><rect width="48.494" height="10.639" x="32.216" y="66.938" fill="#fff" rx="5.32"/><rect width="36.618" height="2.969" x="36.669" y="86.977" fill="#fff" rx="1.485"/><circle cx="33.7" cy="88.461" r="1.485" fill="#fff"/><rect width="25.237" height="2.969" x="36.669" y="99.35" fill="#fff" rx="1.485"/><circle cx="33.7" cy="100.834" r="1.485" fill="#fff"/><circle cx="75.02" cy="29.081" r="4.206" fill="url(#d)"/><circle cx="30.608" cy="38.113" r="2.598" fill="url(#e)" transform="rotate(-90 30.608 38.113)"/><circle cx="90.236" cy="45.289" r="2.598" fill="url(#f)" transform="rotate(-90 90.236 45.289)"/></g><defs><linearGradient id="b" x1="56.34" x2="56.34" y1="36.752" y2="57.169" gradientUnits="userSpaceOnUse"><stop stop-color="#4D64DE"/><stop offset="1" stop-color="#B5C0FF"/></linearGradient><linearGradient id="c" x1="24.051" x2="71.927" y1="56.794" y2="138.69" gradientUnits="userSpaceOnUse"><stop stop-color="#B5C0FF"/><stop offset="1" stop-color="#5464DA"/></linearGradient><linearGradient id="d" x1="75.02" x2="75.02" y1="24.875" y2="33.287" gradientUnits="userSpaceOnUse"><stop stop-color="#B0BCFF"/><stop offset="1" stop-color="#B0BCFF" stop-opacity="0"/></linearGradient><linearGradient id="e" x1="30.608" x2="30.608" y1="35.515" y2="40.711" gradientUnits="userSpaceOnUse"><stop stop-color="#B0BCFF"/><stop offset="1" stop-color="#B0BCFF" stop-opacity="0"/></linearGradient><linearGradient id="f" x1="90.236" x2="90.236" y1="42.691" y2="47.887" gradientUnits="userSpaceOnUse"><stop stop-color="#B0BCFF" stop-opacity=".53"/><stop offset="1" stop-color="#B0BCFF" stop-opacity="0"/></linearGradient></defs></svg>