<svg xmlns="http://www.w3.org/2000/svg" width="46" height="46" fill="none" viewBox="0 0 46 46" data-c="1"><rect width="38.938" height="38.938" x="5.578" y="5.734" fill="url(#a)" rx="8"/><path fill="#DD94FF" fill-opacity=".2" stroke="url(#b)" d="M2.785 1.44h14.479a8.5 8.5 0 0 1 8.5 8.5v7.478a8.5 8.5 0 0 1-8.5 8.5H9.785a8.5 8.5 0 0 1-8.5-8.5V2.939a1.5 1.5 0 0 1 1.5-1.5Z"/><path fill="#fff" d="m10.129 25.788-.315 6.955 6.672-6.018 7.32 6.434 11.643-9.533 4.829 4.216V15.766H27.955l3.683 4.186-7.831 6.288-7.065-6.288z"/><defs><linearGradient id="a" x1="44.517" x2="9.079" y1="44.673" y2="9.071" gradientUnits="userSpaceOnUse"><stop stop-color="#B533F2"/><stop offset="1" stop-color="#E09EFF"/></linearGradient><linearGradient id="b" x1="-1.03" x2="13.524" y1="-.907" y2="26.418" gradientUnits="userSpaceOnUse"><stop stop-color="#fff" stop-opacity=".5"/><stop offset="1" stop-color="#fff" stop-opacity="0"/></linearGradient></defs></svg>