<svg xmlns="http://www.w3.org/2000/svg" width="24" height="24" fill="none" data-c="1"><path fill="url(#a)" d="M4.508 19.92V3.662a1 1 0 0 1 1-1h12.984a1 1 0 0 1 1 1v16.234a1 1 0 0 1-1.35.936l-5.616-2.098a1 1 0 0 0-.685-.006l-5.998 2.134a1 1 0 0 1-1.335-.942"/><path fill="url(#b)" d="m19.493 15.658-7.223 2.979 5.873 2.195a1 1 0 0 0 1.35-.937z"/><g filter="url(#c)"><path fill="url(#d)" d="m11.539 8.642-1.508.631V7.567l2.01-1.145h1.227v8.168h-1.73z"/></g><defs><linearGradient id="a" x1="12" x2="12" y1="2.662" y2="21.337" gradientUnits="userSpaceOnUse"><stop stop-color="#FFF7EA"/><stop offset="1" stop-color="#F3C880"/></linearGradient><linearGradient id="b" x1="19.494" x2="15.771" y1="23.082" y2="14.397" gradientUnits="userSpaceOnUse"><stop stop-color="#E6C376"/><stop offset="1" stop-color="#C29C49"/></linearGradient><linearGradient id="d" x1="12.001" x2="12.001" y1="3.554" y2="15.239" gradientUnits="userSpaceOnUse"><stop stop-color="#8B6540"/><stop offset="1" stop-color="#251B11"/></linearGradient><filter id="c" width="4.236" height="9.168" x="9.031" y="6.422" color-interpolation-filters="sRGB" filterUnits="userSpaceOnUse"><feFlood flood-opacity="0" result="BackgroundImageFix"/><feColorMatrix in="SourceAlpha" result="hardAlpha" values="0 0 0 0 0 0 0 0 0 0 0 0 0 0 0 0 0 0 127 0"/><feOffset dx="-1" dy="1"/><feComposite in2="hardAlpha" operator="out"/><feColorMatrix values="0 0 0 0 1 0 0 0 0 1 0 0 0 0 1 0 0 0 0.5 0"/><feBlend in2="BackgroundImageFix" result="effect1_dropShadow_7268_23757"/><feBlend in="SourceGraphic" in2="effect1_dropShadow_7268_23757" result="shape"/></filter></defs></svg>