<svg xmlns="http://www.w3.org/2000/svg" width="121" height="120" fill="none" data-c="1"><circle cx="60.5" cy="56.05" r="52.836" fill="#fff"/><path fill="url(#a)" d="m90.753 42.156-26.9-12.416a8 8 0 0 0-6.706 0l-26.9 12.416a8 8 0 0 0-4.647 7.263v30.929c0 1.91.24 3.819.986 5.577 3.433 8.09 13.247 22.607 29.441 29.277a11.94 11.94 0 0 0 8.959.034C81.82 108.533 91 94.508 94.43 85.976c.722-1.795.97-3.731.97-5.667V49.42a8 8 0 0 0-4.647-7.263"/><path fill="url(#b)" stroke="url(#c)" stroke-width="2.5" d="M83.206 48.31 63.845 39.4a8 8 0 0 0-6.69 0l-19.36 8.91a8 8 0 0 0-4.656 7.268v22.419c0 1.915.24 3.836 1.03 5.582 2.83 6.255 10.128 16.697 21.895 21.906a11.16 11.16 0 0 0 8.887.038c12.229-5.216 19.107-15.35 21.903-21.894.762-1.785 1.008-3.73 1.008-5.671v-22.38a8 8 0 0 0-4.656-7.268Z"/><circle cx="62.358" cy="92.126" r="2.786" fill="#7987D1"/><circle cx="60.499" cy="92.126" r="2.786" fill="#fff"/><path fill="#7987D1" d="m64.808 80.878 1.098-24.453a3.567 3.567 0 1 0-7.129-.032l.879 24.462a2.578 2.578 0 0 0 5.152.023"/><path fill="#fff" d="m62.95 80.878 1.097-24.453a3.567 3.567 0 1 0-7.128-.032l.878 24.462a2.578 2.578 0 0 0 5.153.023"/><path fill="url(#d)" fill-rule="evenodd" d="M114.124 22.6c0 7.444-6.035 13.479-13.479 13.479s-13.479-6.035-13.479-13.48c0-7.443 6.035-13.478 13.479-13.478s13.479 6.035 13.479 13.479" clip-rule="evenodd"/><path fill="#fff" stroke="#fff" stroke-width="2" d="M104.844 18.597c.177.216.285.48.313.758l.007.14-.006.14a1.42 1.42 0 0 1-.409.862l-2.241 2.24 2.241 2.241c.232.233.377.538.409.862l.006.14-.007.14a1.42 1.42 0 0 1-1.27 1.27l-.139.007c-.376 0-.737-.15-1.002-.415l-2.241-2.241-2.24 2.24a1.42 1.42 0 0 1-.863.41l-.14.006a1.416 1.416 0 0 1-1.41-1.277l-.006-.14c0-.375.15-.736.415-1.002l2.24-2.24-2.24-2.241a1.42 1.42 0 0 1-.409-.862l-.006-.14c0-.329.114-.646.32-.898l.094-.103.104-.095c.252-.207.57-.32.898-.32l.14.006c.325.032.63.176.862.409l2.241 2.24 2.241-2.24a1.42 1.42 0 0 1 1.002-.415l.139.006c.325.033.63.176.863.409z"/><defs><linearGradient id="a" x1="84.579" x2="35.702" y1="51.916" y2="93.274" gradientUnits="userSpaceOnUse"><stop stop-color="#B1BDFD"/><stop offset="1" stop-color="#5268E0"/></linearGradient><linearGradient id="b" x1="78.884" x2="39.456" y1="84.46" y2="50.798" gradientUnits="userSpaceOnUse"><stop stop-color="#B4BFFE"/><stop offset="1" stop-color="#8895E8"/></linearGradient><linearGradient id="c" x1="41.262" x2="83.587" y1="45.983" y2="107.119" gradientUnits="userSpaceOnUse"><stop offset=".088" stop-color="#F8F8FF"/><stop offset="1" stop-color="#B8C1FF"/></linearGradient><linearGradient id="d" x1="87.166" x2="87.166" y1="9.121" y2="36.079" gradientUnits="userSpaceOnUse"><stop stop-color="#FF9898"/><stop offset="1" stop-color="#FF4F4F"/></linearGradient></defs></svg>