<svg xmlns="http://www.w3.org/2000/svg" width="20" height="20" fill="none" data-c="1"><path fill="#333" d="M10 1.25A8.75 8.75 0 0 0 1.25 10 8.75 8.75 0 0 0 10 18.75 8.75 8.75 0 0 0 18.75 10 8.75 8.75 0 0 0 10 1.25m0 16.25c-4.083 0-7.5-3.333-7.5-7.5S5.833 2.5 10 2.5s7.5 3.333 7.5 7.5-3.417 7.5-7.5 7.5"/><path fill="#333" d="M9.75 12.584c-.833 0-1 .166-1 1 0 .833.167 1 1 1 .75 0 1-.167 1-1 0-.917-.25-1-1-1m-.083-7.167c-.667 0-1.334.083-1.917.25v1.417c.5-.167 1.083-.25 1.667-.25 1.083 0 1.416.166 1.416 1.083 0 .667-.166.833-.75 1.333C9.25 9.917 9 10.334 9 11.084v.583h1.417v-.333c0-.5.166-.75.916-1.334.834-.5 1.167-1.25 1.25-2.333 0-1.75-.916-2.25-2.916-2.25"/></svg>