<svg xmlns="http://www.w3.org/2000/svg" width="24" height="24" fill="none" data-c="1"><path fill="#000" d="M7.1 9.2V7.567a4.9 4.9 0 1 1 9.8 0V9.2h.234a2.57 2.57 0 0 1 2.567 2.567v7.002a2.566 2.566 0 0 1-2.567 2.567H6.866a2.57 2.57 0 0 1-2.567-2.567v-7.002A2.566 2.566 0 0 1 6.866 9.2zm1.4 0h7V7.567a3.5 3.5 0 1 0-7.001 0zm-2.801 2.567v7.002c0 .643.523 1.166 1.167 1.166h10.268a1.167 1.167 0 0 0 1.167-1.166v-7.002c0-.643-.523-1.166-1.167-1.166H6.866a1.165 1.165 0 0 0-1.167 1.166"/><rect width="2.117" height="4.268" x="10.941" y="13.262" fill="#000" rx="1.059"/></svg>