<svg xmlns="http://www.w3.org/2000/svg" width="24" height="24" fill="none" data-c="1"><path fill="#000" d="M14.774 12.555A5.27 5.27 0 0 0 16.92 8.31a5.28 5.28 0 0 0-5.274-5.274A5.28 5.28 0 0 0 6.373 8.31c0 1.74.847 3.286 2.147 4.246-2.984 1.233-5.088 4.174-5.088 7.597a.824.824 0 1 0 1.648 0 6.575 6.575 0 0 1 6.569-6.568 6.577 6.577 0 0 1 6.569 6.568.824.824 0 1 0 1.648 0c-.002-3.423-2.108-6.364-5.092-7.597M8.02 8.31a3.63 3.63 0 0 1 3.627-3.627c2 0 3.627 1.628 3.627 3.627 0 2-1.628 3.628-3.627 3.628-2 0-3.627-1.628-3.627-3.628"/></svg>