<svg xmlns="http://www.w3.org/2000/svg" id="图层_1" viewBox="0 0 235.76 151.56" data-c="1"><defs><style>.cls-2{fill:#fff}</style></defs><g style="opacity:.15"><path d="M117.35 9.11V0l-8.84 1.29c-24.59 4.23-43.9 24.27-48 49.86l15.7-3.7c2.53-15.67 12-22.19 25.8-27.93C100.55 61.9 90.54 88 82.05 102.67c-9.78 16.93-19.66 22.72-19.7 22.74l-.58.36a29.35 29.35 0 0 1-16.29 4.94c-16.7 0-30.28-14.14-30.28-31.53 0-11.5 6.81-20.79 15.7-27.65 10.94-8.44 21.24-4.42 22.28-3.28L63 55.44a44 44 0 0 0-39.39 2.23A47.75 47.75 0 0 0 0 99.18c0 26.11 20.4 47.36 45.48 47.36a44.1 44.1 0 0 0 24.29-7.31c4.71-2.77 47.58-30.71 47.58-130.12M215.81 63.34c-6.46-24.88-22.18-30.69-34.4-31.12l4.21 14.38c5 .18 8.57 2.08 11.66 8.82a44.8 44.8 0 0 0-14.39-.28l4.44 15.07c1.41-.2.47.31 1.91.31A30.2 30.2 0 0 1 198.7 72c13.08 4.31 21.86 16.81 21.86 31.11a32.51 32.51 0 0 1-19.23 30.09c-20.84 6.27-33.6 1-40.61-1l-11.82 11.9c10.2 4.41 20.14 7.42 34 7.42a73.3 73.3 0 0 0 23-3.26 6 6 0 0 0 .71-.26c17.66-7.45 29.07-25.08 29.07-44.91a48.84 48.84 0 0 0-19.87-39.75" class="cls-2"/><path d="M176.42 64.38c0-5-.64-22.4-8.85-35.4S144 4.77 129.35 1.73v16.16c10.25 2.95 19.3 10 25.49 19.79 6 9.56 6.35 23.92 6.35 26.7 0 23.39-7.89 45.65-28.77 57.53-22.23 12.65-38 10.53-40.81 10.13l-15.43 14.14c6 1.8 10.36 1.49 21.85 2.17A75.8 75.8 0 0 0 141 135c.12-.08.24-.16.35-.25 22.93-17.68 35.07-42.02 35.07-70.37" class="cls-2"/></g></svg>