<svg xmlns="http://www.w3.org/2000/svg" width="24" height="24" fill="none" data-c="1"><path fill="#000" d="M12.12 21.767c-2.922 0-8.349-4.349-8.349-8.465V5.448c0-.194.156-.34.36-.35l.475-.009c.02 0 1.874-.039 3.786-.796 1.952-.776 3.214-1.67 3.233-1.68l.282-.193a.4.4 0 0 1 .213-.068.33.33 0 0 1 .214.068l.281.203c.01.01 1.282.903 3.243 1.68 1.912.757 3.766.796 3.786.796l.466.01c.194 0 .359.155.359.35v7.853c0 4.106-5.427 8.455-8.349 8.455m7.068-15.406c-.719-.058-2.233-.243-3.796-.864a18.3 18.3 0 0 1-3.272-1.66 19 19 0 0 1-3.271 1.66c-1.563.621-3.068.806-3.796.864v6.941c0 3.223 4.728 7.174 7.067 7.174.903 0 2.67-.738 4.398-2.35 1.67-1.552 2.67-3.358 2.67-4.824zm-7.738 8.261a.63.63 0 0 1-.912 0l-1.932-1.941a.644.644 0 0 1 .903-.922l.01.01 1.475 1.485 3.718-3.748a.64.64 0 0 1 .903-.01l.01.01a.645.645 0 0 1 0 .913z"/></svg>