<svg xmlns="http://www.w3.org/2000/svg" width="32" height="32" fill="none" data-c="1"><rect width="32" height="32" fill="#fff" rx="16"/><path fill="#3971F3" d="M6.4 13.867c0-4.023 0-6.034 1.25-7.284s3.261-1.25 7.284-1.25h2.133c4.023 0 6.034 0 7.284 1.25s1.25 3.261 1.25 7.284v4.267c0 4.022 0 6.034-1.25 7.283s-3.261 1.25-7.284 1.25h-2.133c-4.023 0-6.034 0-7.284-1.25s-1.25-3.26-1.25-7.283z"/><path fill="#fff" d="M20.82 20.801c.187-.145.356-.315.695-.653l4.221-4.221c.102-.103.055-.278-.081-.326a4.6 4.6 0 0 1-1.753-1.103 4.6 4.6 0 0 1-1.104-1.753c-.047-.136-.223-.183-.325-.081l-4.22 4.221c-.34.339-.509.508-.654.695q-.259.331-.44.71c-.101.214-.177.441-.328.895l-.196.587-.311.934-.292.875a.622.622 0 0 0 .787.787l.875-.292.934-.311.587-.196c.454-.151.68-.227.895-.329q.379-.18.71-.439M27.058 14.605a2.307 2.307 0 1 0-3.263-3.263l-.136.136a.56.56 0 0 0-.157.496c.02.115.059.282.128.482.139.4.4.926.895 1.42a3.74 3.74 0 0 0 1.418.894c.2.07.368.107.483.128a.56.56 0 0 0 .496-.157z"/><path fill="#fff" fill-rule="evenodd" d="M10.934 12.8a.8.8 0 0 1 .8-.8h6.933a.8.8 0 1 1 0 1.6h-6.933a.8.8 0 0 1-.8-.8m0 4.267a.8.8 0 0 1 .8-.8h3.2a.8.8 0 1 1 0 1.6h-3.2a.8.8 0 0 1-.8-.8m0 4.266a.8.8 0 0 1 .8-.8h1.6a.8.8 0 0 1 0 1.6h-1.6a.8.8 0 0 1-.8-.8" clip-rule="evenodd"/></svg>