<svg xmlns="http://www.w3.org/2000/svg" width="32" height="32" fill="none" data-c="1"><rect width="32" height="32" fill="#fff" rx="16"/><path fill="#FFB13C" d="M26.666 16c0 5.891-4.775 10.667-10.666 10.667S5.333 21.89 5.333 16c0-5.89 4.776-10.666 10.667-10.666 5.89 0 10.666 4.775 10.666 10.666"/><path fill="#fff" d="M16 11.467a1.2 1.2 0 0 0-1.2 1.2.8.8 0 0 1-1.6 0 2.8 2.8 0 1 1 4.809 1.95q-.149.152-.282.285c-.23.23-.432.432-.609.66-.234.3-.318.52-.318.705v.8a.8.8 0 0 1-1.6 0v-.8c0-.7.325-1.265.655-1.689.244-.313.551-.62.8-.868q.113-.113.206-.207a1.2 1.2 0 0 0-.86-2.036M16 21.333a1.067 1.067 0 1 0 0-2.133 1.067 1.067 0 0 0 0 2.133"/></svg>