<svg xmlns="http://www.w3.org/2000/svg" width="32" height="32" fill="none" data-c="1"><rect width="32" height="32" fill="#fff" rx="16"/><path fill="#41CF84" fill-rule="evenodd" d="M18.431 5.496c-.395-.163-.896-.163-1.897-.163-1.002 0-1.503 0-1.898.163a2.14 2.14 0 0 0-1.163 1.154c-.1.24-.139.517-.154.921a1.72 1.72 0 0 1-.85 1.443c-.519.298-1.153.287-1.683.009-.36-.19-.622-.295-.88-.328a2.16 2.16 0 0 0-1.59.422c-.339.258-.59.689-1.09 1.55-.5.86-.751 1.291-.807 1.712a2.12 2.12 0 0 0 .426 1.577c.158.205.38.377.726.593.508.316.835.856.835 1.451s-.327 1.135-.835 1.452c-.345.215-.568.387-.726.592a2.12 2.12 0 0 0-.426 1.578c.056.42.306.85.807 1.712.5.86.751 1.29 1.09 1.55a2.16 2.16 0 0 0 1.59.422c.257-.034.519-.14.88-.329.53-.278 1.164-.289 1.684.009.52.297.827.848.85 1.443.014.405.053.682.153.92.218.524.637.939 1.163 1.155.395.163.896.163 1.898.163s1.502 0 1.897-.163a2.14 2.14 0 0 0 1.163-1.154c.1-.239.139-.516.154-.921.023-.595.33-1.145.85-1.443.519-.298 1.153-.287 1.684-.009.36.19.622.295.88.329a2.16 2.16 0 0 0 1.59-.423c.338-.258.589-.689 1.09-1.55.5-.86.75-1.29.807-1.711a2.12 2.12 0 0 0-.426-1.578c-.159-.205-.381-.377-.727-.592-.508-.317-.835-.857-.835-1.452s.327-1.135.835-1.451c.346-.216.568-.388.727-.593.347-.449.5-1.016.426-1.577-.056-.42-.306-.851-.807-1.712s-.751-1.291-1.09-1.55a2.16 2.16 0 0 0-1.59-.422c-.258.033-.52.139-.88.328-.53.278-1.165.29-1.684-.008a1.72 1.72 0 0 1-.85-1.444c-.015-.404-.054-.682-.154-.92a2.14 2.14 0 0 0-1.163-1.155" clip-rule="evenodd"/><path fill="#fff" d="M19.757 16c0 1.767-1.443 3.2-3.224 3.2-1.78 0-3.224-1.433-3.224-3.2s1.443-3.2 3.224-3.2c1.78 0 3.224 1.432 3.224 3.2"/></svg>