<svg xmlns="http://www.w3.org/2000/svg" width="32" height="32" fill="none" viewBox="0 0 32 32" data-c="1"><path fill="#444" d="M8.39 4.018c-4.271 3.186-4.8 10.178-1.001 17.226 3.712 6.887 9.596 10.546 15.679 8.667 1.581-.488 3.098-1.84 3.098-3.362 0-2.645-3.027-7.914-5.295-8.323-.636-.114-1.405.115-2.549.609l-.365.161-.285.132a42 42 0 0 0-.91.44l-.171.084-.008-.008a4 4 0 0 1-.208-.217c-.328-.37-.714-.915-1.104-1.556l-.113-.19a18 18 0 0 1-1.291-2.63l-.029-.077.723-.31c.15-.063.292-.127.441-.194l.421-.19.325-.15c.821-.39 1.309-.671 1.583-.97 1.566-1.704-1.54-9.938-4.087-10.413-1.515-.282-3.347.21-4.705 1.163zm4.463.826c.326.061 1.274 1.526 1.986 3.414.356.942.625 1.893.75 2.644l.022.13q.051.317.056.64l-.004.098-.134.077-.074.041c-.235.128-.547.281-.923.454l-.619.278c-.219.096-.44.192-.71.307l-.981.417-.146.068-.05.026-.027-.027c-.059-.04-.11.103-.5 1.212.648 2.775 3.386 7.279 5.067 7.282l.207-.023a1 1 0 0 0 .093-.017l.141-.05.122-.053.44-.214.749-.366c.115-.055.224-.107.345-.163l.342-.154.163-.072a10 10 0 0 1 .998-.378l.12-.033c.143-.038.229-.053.207-.056 1.067.191 3.54 4.496 3.54 6.223 0 .363-.804 1.08-1.595 1.324-4.938 1.525-9.89-1.554-13.171-7.641-3.347-6.207-2.904-12.04.399-14.504.919-.687 2.24-1.06 3.187-.884"/></svg>