<svg xmlns="http://www.w3.org/2000/svg" width="46" height="46" fill="none" viewBox="0 0 46 46" data-c="1"><rect width="38.938" height="38.938" x="5.578" y="5.734" fill="url(#a)" rx="8"/><path fill="url(#b)" fill-opacity=".2" stroke="url(#c)" d="M2.785 1.44h14.479a8.5 8.5 0 0 1 8.5 8.5v7.478a8.5 8.5 0 0 1-8.5 8.5H9.785a8.5 8.5 0 0 1-8.5-8.5V2.939a1.5 1.5 0 0 1 1.5-1.5Z"/><path fill="#fff" d="M35.25 35.538s-.25.603-.583 0c0 0-3.712-10.512-12.759-7.864v3.262s-.146 1.92-1.93.67L11.081 24.4s-1.887-.963.115-2.28l8.992-7.249s1.351-.905 1.675.58l.011 3.52s16.867.759 13.376 16.567"/><defs><linearGradient id="a" x1="44.517" x2="9.079" y1="44.673" y2="9.071" gradientUnits="userSpaceOnUse"><stop stop-color="#FF7D37"/><stop offset="1" stop-color="#FFF2BD"/></linearGradient><linearGradient id="b" x1="13.524" x2="13.524" y1=".939" y2="26.418" gradientUnits="userSpaceOnUse"><stop stop-color="#FFA347"/><stop offset="1" stop-color="#FFC64B"/></linearGradient><linearGradient id="c" x1="-1.03" x2="13.524" y1="-.907" y2="26.418" gradientUnits="userSpaceOnUse"><stop stop-color="#fff" stop-opacity=".5"/><stop offset="1" stop-color="#fff" stop-opacity="0"/></linearGradient></defs></svg>