<svg xmlns="http://www.w3.org/2000/svg" width="24" height="24" fill="none" viewBox="0 0 24 24" data-c="1"><path fill="#1A6DD8" d="M18.848 6.534 16.91 4.62A2.13 2.13 0 0 0 15.4 4H6.148A2.15 2.15 0 0 0 4 6.147v11.706A2.15 2.15 0 0 0 6.147 20H17.34a2.15 2.15 0 0 0 2.147-2.147V8.06c0-.57-.232-1.126-.638-1.527m-4.27-1.127v4.581c0 .199-.16.358-.357.358H9.378a.36.36 0 0 1-.358-.358v-4.58zm3.5 12.446a.74.74 0 0 1-.739.74H6.147a.74.74 0 0 1-.74-.74V6.147a.74.74 0 0 1 .74-.74h1.465v4.581c0 .975.792 1.766 1.765 1.766h4.843c.974 0 1.765-.792 1.765-1.766V5.685l1.873 1.85a.74.74 0 0 1 .22.526z"/><path fill="#1A6DD8" d="M13.001 9.27h-1.08a.703.703 0 1 1 0-1.407H13a.703.703 0 1 1 0 1.408"/></svg>