<svg xmlns="http://www.w3.org/2000/svg" width="12" height="12" fill="none" data-c="1"><path fill="#fff" fill-rule="evenodd" d="m11.686 10.48.001.003c.155.188.17.506.033.713l-.005.007-.005.005a.49.49 0 0 1-.366.136.5.5 0 0 1-.365-.136L8.566 8.796c-.925.725-2.004 1.108-3.127 1.108a4.8 4.8 0 0 1-1.914-.391A5 5 0 0 1 1.954 8.45 5 5 0 0 1 .891 6.879a4.877 4.877 0 0 1 0-3.833c.25-.591.608-1.122 1.063-1.58s.984-.82 1.57-1.071A4.854 4.854 0 0 1 7.354.392c.587.249 1.114.607 1.57 1.062a4.93 4.93 0 0 1 1.455 3.485c0 1.168-.393 2.274-1.106 3.129zM1.504 4.964A3.94 3.94 0 0 0 5.44 8.9a3.94 3.94 0 0 0 3.935-3.935A3.94 3.94 0 0 0 5.439 1.03a3.94 3.94 0 0 0-3.935 3.935" clip-rule="evenodd"/></svg>