<svg xmlns="http://www.w3.org/2000/svg" width="24" height="24" fill="none" data-c="1"><path fill="url(#a)" d="M4.51 19.918V3.666a1 1 0 0 1 1-1h12.98a1 1 0 0 1 1 1v16.228a1 1 0 0 1-1.35.937l-5.614-2.098a1 1 0 0 0-.685-.006L5.845 20.86a1 1 0 0 1-1.335-.942"/><path fill="url(#b)" d="m19.49 15.658-7.222 2.978 5.871 2.194a1 1 0 0 0 1.35-.936z"/><g filter="url(#c)"><path fill="url(#d)" d="M9.458 13.095a37 37 0 0 0 1.6-1.448q.69-.666 1.238-1.414.55-.759.55-1.32 0-.572-.421-.887-.42-.328-1.098-.328-.48 0-1.052.187-.56.187-1.11.526V7.056a5.5 5.5 0 0 1 1.262-.572 4.6 4.6 0 0 1 1.355-.222q1.309 0 2.068.642.77.63.77 1.729 0 .782-.525 1.682a8.5 8.5 0 0 1-1.203 1.589q-.678.69-1.612 1.518l-.339-.233h3.738v1.401H9.014V13.47z"/></g><defs><linearGradient id="a" x1="12" x2="12" y1="2.666" y2="21.335" gradientUnits="userSpaceOnUse"><stop stop-color="#EBF1F6"/><stop offset="1" stop-color="#B5C1D3"/></linearGradient><linearGradient id="b" x1="19.489" x2="15.768" y1="23.08" y2="14.398" gradientUnits="userSpaceOnUse"><stop stop-color="#C0C5CF"/><stop offset="1" stop-color="#7F93B7"/></linearGradient><linearGradient id="d" x1="11.999" x2="11.999" y1="3.558" y2="15.239" gradientUnits="userSpaceOnUse"><stop stop-color="#A2A5B1"/><stop offset="1" stop-color="#2C2B3E"/></linearGradient><filter id="c" width="6.666" height="9.328" x="8.014" y="6.262" color-interpolation-filters="sRGB" filterUnits="userSpaceOnUse"><feFlood flood-opacity="0" result="BackgroundImageFix"/><feColorMatrix in="SourceAlpha" result="hardAlpha" values="0 0 0 0 0 0 0 0 0 0 0 0 0 0 0 0 0 0 127 0"/><feOffset dx="-1" dy="1"/><feComposite in2="hardAlpha" operator="out"/><feColorMatrix values="0 0 0 0 1 0 0 0 0 1 0 0 0 0 1 0 0 0 0.5 0"/><feBlend in2="BackgroundImageFix" result="effect1_dropShadow_7268_23762"/><feBlend in="SourceGraphic" in2="effect1_dropShadow_7268_23762" result="shape"/></filter></defs></svg>