<svg xmlns="http://www.w3.org/2000/svg" width="14" height="14" fill="none" data-c="1"><path fill="#fff" fill-rule="evenodd" d="M7 0c.692 0 1.038 0 1.31.107.365.142.654.414.804.757.07.157.096.339.107.605.015.39.227.751.586.947.36.195.797.188 1.164.005.249-.124.43-.193.608-.215a1.55 1.55 0 0 1 1.098.277c.234.17.407.452.753 1.017s.519.847.557 1.123c.052.369-.054.74-.294 1.035-.11.135-.263.248-.502.39-.35.207-.577.561-.577.952s.226.745.577.953c.239.141.393.254.502.388.24.295.346.667.294 1.035-.038.277-.211.559-.557 1.124s-.52.847-.753 1.017a1.55 1.55 0 0 1-1.098.277c-.179-.022-.36-.091-.609-.215a1.26 1.26 0 0 0-1.163.005 1.12 1.12 0 0 0-.586.947c-.01.266-.038.448-.107.605-.15.343-.44.615-.803.757C8.038 14 7.69 14 7 14c-.692 0-1.038 0-1.31-.107a1.45 1.45 0 0 1-.804-.757c-.07-.157-.096-.339-.107-.605a1.12 1.12 0 0 0-.586-.947 1.26 1.26 0 0 0-1.164-.005c-.249.124-.43.193-.608.215a1.55 1.55 0 0 1-1.098-.277c-.234-.17-.407-.452-.753-1.017S.051 9.653.013 9.377c-.052-.369.054-.74.294-1.035.11-.135.263-.248.502-.39.35-.207.576-.561.576-.952S1.16 6.255.81 6.047c-.24-.141-.394-.254-.503-.389a1.34 1.34 0 0 1-.294-1.035C.05 4.347.224 4.065.57 3.5s.52-.847.753-1.017a1.55 1.55 0 0 1 1.098-.277c.179.022.36.09.609.215.366.183.804.19 1.163-.005.359-.196.57-.557.586-.947.011-.266.038-.448.107-.605.15-.343.44-.615.803-.757C5.962 0 6.31 0 7 0m0 9.333a2.333 2.333 0 1 0 0-4.666 2.333 2.333 0 0 0 0 4.666" clip-rule="evenodd"/></svg>