<svg xmlns="http://www.w3.org/2000/svg" width="25" height="24" fill="none" data-c="1"><path fill="url(#a)" d="M1.5 6a4 4 0 0 1 4-4h14a4 4 0 0 1 4 4v8a4 4 0 0 1-4 4h-14a4 4 0 0 1-4-4z"/><path fill="url(#b)" d="M4.5 20.75a.75.75 0 0 1 .75-.75h14.5a.75.75 0 0 1 0 1.5H5.25a.75.75 0 0 1-.75-.75"/><path stroke="url(#c)" stroke-linecap="round" stroke-linejoin="round" stroke-width="1.5" d="m6 13 3.5-4.5L13 13l5.5-6"/><defs><linearGradient id="a" x1="3" x2="13.138" y1="4.5" y2="16.642" gradientUnits="userSpaceOnUse"><stop stop-color="#1A6BEB"/><stop offset="1" stop-color="#6EA6FF"/></linearGradient><linearGradient id="b" x1="3.5" x2="3.377" y1="17.5" y2="20.346" gradientUnits="userSpaceOnUse"><stop stop-color="#1A6BEB"/><stop offset="1" stop-color="#6EA6FF"/></linearGradient><linearGradient id="c" x1="10.297" x2="21.994" y1="1" y2="1.508" gradientUnits="userSpaceOnUse"><stop stop-color="#fff"/><stop offset="1" stop-color="#fff" stop-opacity=".5"/></linearGradient></defs></svg>