<svg xmlns="http://www.w3.org/2000/svg" width="32" height="32" fill="none" viewBox="0 0 32 32" data-c="1"><rect width="32" height="32" fill="#fff" rx="16"/><path fill="#3971F3" d="M6.4 13.867c0-4.022 0-6.034 1.25-7.283s3.261-1.25 7.284-1.25h2.133c4.023 0 6.034 0 7.284 1.25s1.25 3.26 1.25 7.283v4.267c0 4.023 0 6.034-1.25 7.284s-3.261 1.25-7.284 1.25h-2.133c-4.023 0-6.034 0-7.284-1.25S6.4 22.157 6.4 18.134z"/><path fill="#fff" fill-rule="evenodd" d="M9.242 20.595a.8.8 0 0 0 .8.8h6.382a.8.8 0 1 0 0-1.6h-6.382a.8.8 0 0 0-.8.8m0-4.267a.8.8 0 0 0 .8.8h3.2a.8.8 0 0 0 0-1.6h-3.2a.8.8 0 0 0-.8.8m0-4.267a.8.8 0 0 0 .8.8h1.6a.8.8 0 0 0 0-1.6h-1.6a.8.8 0 0 0-.8.8" clip-rule="evenodd"/><path fill="#fff" d="M22.789 21.842a.7.7 0 0 1-.397-.348l-1.515-2.961a.63.63 0 0 1 .306-.87.7.7 0 0 1 .526-.02.7.7 0 0 1 .398.345l1.517 2.962a.63.63 0 0 1-.095.725.7.7 0 0 1-.74.167"/><path fill="#fff" d="M18.233 18.693a.96.96 0 0 1-.6-.645l-.552-1.976-1.955-.689a.99.99 0 0 1-.648-.789.96.96 0 0 1 .418-.925l1.692-1.138.033-2.044a.96.96 0 0 1 1.559-.747l1.599 1.255 1.985-.582a.961.961 0 0 1 1.198 1.234l-.705 1.916 1.183 1.703a.965.965 0 0 1-.826 1.516l-2.039-.075-1.244 1.652a.95.95 0 0 1-.945.373 1 1 0 0 1-.153-.039"/></svg>