<svg xmlns="http://www.w3.org/2000/svg" width="24" height="24" fill="none" data-c="1"><path fill="url(#a)" d="M4.51 19.918V3.666a1 1 0 0 1 1-1h12.98a1 1 0 0 1 1 1v16.228a1 1 0 0 1-1.35.937l-5.614-2.098a1 1 0 0 0-.685-.006L5.845 20.86a1 1 0 0 1-1.335-.942"/><path fill="url(#b)" d="m19.49 15.658-7.222 2.978 5.871 2.194a1 1 0 0 0 1.35-.936z"/><g filter="url(#c)"><path fill="url(#d)" d="M11.608 14.742q-1.227 0-2.383-.537v-1.612q.513.374 1.098.56.595.176 1.18.176.653 0 1.004-.28.35-.293.35-.853 0-.63-.432-.947-.432-.327-1.145-.327h-1.168v-1.18h1.052q.701 0 1.086-.303.386-.315.386-.864a.83.83 0 0 0-.35-.713q-.351-.257-.935-.257-.42 0-.935.117-.514.105-.934.304V6.764a4.2 4.2 0 0 1 1.04-.374 5.4 5.4 0 0 1 1.156-.128q1.215 0 1.927.584.713.572.724 1.565 0 .62-.327 1.11-.328.49-.934.77.7.258 1.075.783.385.526.385 1.239 0 .712-.362 1.261-.351.549-1.017.864-.665.304-1.541.304"/></g><defs><linearGradient id="a" x1="12" x2="12" y1="2.666" y2="21.335" gradientUnits="userSpaceOnUse"><stop stop-color="#FDD7C9"/><stop offset="1" stop-color="#E79576"/></linearGradient><linearGradient id="b" x1="19.489" x2="16.891" y1="23.08" y2="16.502" gradientUnits="userSpaceOnUse"><stop stop-color="#FBA289"/><stop offset="1" stop-color="#C76E53"/></linearGradient><linearGradient id="d" x1="12" x2="12" y1="3.558" y2="15.239" gradientUnits="userSpaceOnUse"><stop stop-color="#AD4639"/><stop offset="1" stop-color="#6D1D11"/></linearGradient><filter id="c" width="6.303" height="9.48" x="8.225" y="6.262" color-interpolation-filters="sRGB" filterUnits="userSpaceOnUse"><feFlood flood-opacity="0" result="BackgroundImageFix"/><feColorMatrix in="SourceAlpha" result="hardAlpha" values="0 0 0 0 0 0 0 0 0 0 0 0 0 0 0 0 0 0 127 0"/><feOffset dx="-1" dy="1"/><feComposite in2="hardAlpha" operator="out"/><feColorMatrix values="0 0 0 0 1 0 0 0 0 1 0 0 0 0 1 0 0 0 0.5 0"/><feBlend in2="BackgroundImageFix" result="effect1_dropShadow_7268_23767"/><feBlend in="SourceGraphic" in2="effect1_dropShadow_7268_23767" result="shape"/></filter></defs></svg>