<svg xmlns="http://www.w3.org/2000/svg" width="24" height="24" fill="none" data-c="1"><path fill="url(#a)" fill-rule="evenodd" d="M7 2a1 1 0 0 1 2 0v2h6V2a1 1 0 1 1 2 0v2h1a4 4 0 0 1 4 4v10a4 4 0 0 1-4 4H6a4 4 0 0 1-4-4V8a4 4 0 0 1 4-4h1z" clip-rule="evenodd"/><path stroke="url(#b)" stroke-linecap="round" stroke-linejoin="round" stroke-width="1.5" d="m7.5 14 3.364 3L17 12"/><path stroke="url(#c)" stroke-linecap="round" stroke-linejoin="round" stroke-width="1.5" d="M4 9h16"/><defs><linearGradient id="a" x1="4" x2="14" y1="3.5" y2="17" gradientUnits="userSpaceOnUse"><stop stop-color="#1A6BEB"/><stop offset="1" stop-color="#6EA6FF"/></linearGradient><linearGradient id="b" x1="10.766" x2="19.658" y1="7" y2="7.352" gradientUnits="userSpaceOnUse"><stop stop-color="#fff"/><stop offset="1" stop-color="#fff" stop-opacity=".5"/></linearGradient><linearGradient id="c" x1="9.5" x2="23" y1="8" y2="12.5" gradientUnits="userSpaceOnUse"><stop stop-color="#fff"/><stop offset="1" stop-color="#fff" stop-opacity=".5"/></linearGradient></defs></svg>