<svg xmlns="http://www.w3.org/2000/svg" width="14" height="14" fill="none" viewBox="0 0 14 14" data-c="1"><path fill="#FF2F2F" d="M12.594 1.29a4.4 4.4 0 0 0-6.224 0L5.026 2.642a.8.8 0 0 0-.08 1.016.806.806 0 0 0 1.112.2c.032-.024.064-.056.096-.08h.008l1.344-1.344a2.796 2.796 0 0 1 3.96 0 2.796 2.796 0 0 1 0 3.96l-1.344 1.344c-.008.008-.008.008-.008.016a.795.795 0 0 0-.144 1.072.806.806 0 0 0 1.112.2.7.7 0 0 0 .152-.144c.008 0 .016-.008.016-.008l1.344-1.344a4.42 4.42 0 0 0 0-6.24m-5.696 9.68a.8.8 0 0 0-.144.128s-.008 0-.008.008l-.368.368a2.796 2.796 0 0 1-3.96 0 2.796 2.796 0 0 1 0-3.96l.368-.368v-.008a.794.794 0 0 0 .112-1.04.806.806 0 0 0-1.24-.088l-.368.368a4.4 4.4 0 0 0 0 6.224 4.4 4.4 0 0 0 6.224 0l.368-.368s0-.008.008-.008a.8.8 0 0 0 .128-1.064.82.82 0 0 0-1.12-.192M2.954 2.738a.71.71 0 0 0-1.008 0l-.128.128a.71.71 0 0 0 0 1.008l8.2 8.2a.71.71 0 0 0 1.008 0l.128-.128a.71.71 0 0 0 0-1.008z"/></svg>