<svg xmlns="http://www.w3.org/2000/svg" width="14" height="14" fill="none" data-c="1"><g clip-path="url(#a)"><path fill="#fff" fill-opacity=".5" d="M.977 11.486c-.224-1.474-.456-4.163.217-6.852h11.501c.673 2.689.441 5.378.217 6.852-.103.68-.7 1.149-1.388 1.149h-9.16c-.688 0-1.284-.468-1.387-1.149m11.718-6.852s-1-2.5-3-3.5H4.194c-2 1-3 3.5-3 3.5z"/><path stroke="#fff" stroke-linecap="round" stroke-linejoin="round" stroke-width=".5" d="M2.694 12.635h-.33c-.688 0-1.284-.468-1.387-1.149-.224-1.474-.456-4.163.217-6.852h11.501c.673 2.689.441 5.378.217 6.852-.103.68-.7 1.149-1.388 1.149h-.329"/><path fill="#fff" fill-opacity=".5" stroke="#fff" stroke-linecap="round" stroke-linejoin="round" stroke-width=".5" d="M12.695 4.634s-1-2.5-3-3.5H4.194c-2 1-3 3.5-3 3.5z"/><path stroke="#fff" stroke-linecap="round" stroke-linejoin="round" stroke-width=".5" d="M1.193 4.634h11.502M6.944 1.133v3.5"/><path stroke="#fff" stroke-linecap="round" stroke-linejoin="round" stroke-width="1.5" d="M6.944 13.332V7.425m2.053 1.781C8.373 8.41 7.95 8.04 7.315 7.554a.6.6 0 0 0-.742 0c-.633.485-1.058.855-1.681 1.652"/></g><defs><clipPath id="a"><path fill="#fff" d="M-.057.12h14.002v14.002H-.057z"/></clipPath></defs></svg>