<svg xmlns="http://www.w3.org/2000/svg" width="24" height="24" fill="none" data-c="1"><circle cx="12" cy="7" r="5" fill="url(#a)"/><path stroke="url(#b)" stroke-linecap="round" stroke-linejoin="round" stroke-width="1.5" d="M14 8a.6.6 0 0 1-.152.383 1.3 1.3 0 0 1-.434.324 2.7 2.7 0 0 1-.649.217c-.242.05-.502.076-.765.076s-.523-.026-.765-.076a2.7 2.7 0 0 1-.65-.217 1.3 1.3 0 0 1-.433-.324A.6.6 0 0 1 10 8"/><path fill="url(#c)" d="M2 20.2A7.2 7.2 0 0 1 9.2 13h5.6a7.2 7.2 0 0 1 7.2 7.2 1.8 1.8 0 0 1-1.8 1.8H3.8A1.8 1.8 0 0 1 2 20.2"/><defs><linearGradient id="a" x1="7.682" x2="14.06" y1="3.563" y2="9.119" gradientUnits="userSpaceOnUse"><stop stop-color="#1A6BEB"/><stop offset="1" stop-color="#6EA6FF"/></linearGradient><linearGradient id="b" x1="11.375" x2="15.099" y1="7" y2="7.31" gradientUnits="userSpaceOnUse"><stop stop-color="#fff"/><stop offset="1" stop-color="#fff" stop-opacity=".5"/></linearGradient><linearGradient id="c" x1="3.364" x2="8.09" y1="14.406" y2="23.556" gradientUnits="userSpaceOnUse"><stop stop-color="#1A6BEB"/><stop offset="1" stop-color="#6EA6FF"/></linearGradient></defs></svg>