<svg xmlns="http://www.w3.org/2000/svg" width="24" height="24" fill="none" data-c="1"><circle cx="12" cy="7" r="4.25" stroke="#333" stroke-width="1.5"/><path stroke="#333" stroke-linecap="round" stroke-width="1.25" d="M14 8a.6.6 0 0 1-.152.383c-.1.121-.248.231-.434.324a2.7 2.7 0 0 1-.649.217c-.242.05-.502.076-.765.076s-.523-.026-.765-.076a2.7 2.7 0 0 1-.65-.217 1.3 1.3 0 0 1-.433-.324A.6.6 0 0 1 10 8"/><path stroke="#333" stroke-width="1.5" d="M2.75 20.579a6.83 6.83 0 0 1 6.829-6.829h4.842a6.83 6.83 0 0 1 6.829 6.829c0 .37-.3.671-.671.671H3.42c-.37 0-.671-.3-.671-.671Z"/></svg>