<svg xmlns="http://www.w3.org/2000/svg" width="16" height="16" fill="none" viewBox="0 0 16 16" data-c="1"><path fill="#808089" fill-rule="evenodd" d="M9.667 12.333h2.666V9.667H9.667zm-6 0h2.666V9.667H3.667zm6-6h2.666V3.667H9.667zm-6 0h2.666V3.667H3.667zm5.195 6.805a.67.67 0 0 0 .471.195h3.334a.667.667 0 0 0 .666-.666V9.333a.667.667 0 0 0-.666-.666H9.333a.666.666 0 0 0-.666.666v3.334c0 .176.07.346.195.471m-6 0a.67.67 0 0 0 .471.195h3.334a.667.667 0 0 0 .666-.666V9.333a.667.667 0 0 0-.666-.666H3.333a.666.666 0 0 0-.666.666v3.334c0 .176.07.346.195.471m6-6a.67.67 0 0 0 .471.195h3.334a.666.666 0 0 0 .666-.666V3.333a.667.667 0 0 0-.666-.666H9.333a.666.666 0 0 0-.666.666v3.334c0 .176.07.346.195.471m-6 0a.67.67 0 0 0 .471.195h3.334a.666.666 0 0 0 .666-.666V3.333a.667.667 0 0 0-.666-.666H3.333a.666.666 0 0 0-.666.666v3.334c0 .176.07.346.195.471" clip-rule="evenodd"/></svg>