<svg xmlns="http://www.w3.org/2000/svg" width="24" height="22" fill="none" viewBox="0 0 24 22" data-c="1"><path fill="#fff" d="m24.005 10.477-3.804 5.39a2.32 2.32 0 0 1-1.901.985c-.438 0-.867-.125-1.238-.357L2.307 7.23a1.712 1.712 0 0 1-.478-2.452L4.584.959A2.3 2.3 0 0 1 6.462 0c.431 0 .853.12 1.22.347zm-6.33 6.75a2.8 2.8 0 0 1-1.473-.415L1.863 8.07a.236.236 0 0 0-.358.201v.53c0 .342.178.66.468.839l4.278 2.632a2.06 2.06 0 0 0-.567 3.026 1.47 1.47 0 0 1-1.036.429H1.505V14.63c0-.68-.457-1.275-1.116-1.451l-.384-.1L0 21.726l.675-.336c.509-.253.832-.773.832-1.343v-2.821h3.176c.607 0 1.19-.242 1.622-.673l.072-.073a1.32 1.32 0 0 1 .938-.382h.005a2.064 2.064 0 0 0 2.057-1.908l6.425 3.954a1.37 1.37 0 0 0 1.368.043c.197-.106.368-.258.495-.45l.16-.237a.179.179 0 0 0-.15-.274M7.316 14.602a.564.564 0 0 1-.562-.563c0-.31.253-.562.562-.562s.563.253.563.562-.253.563-.563.563"/></svg>